<?xml version="1.0" encoding="UTF-8" standalone="no"?>
<!-- Created with Inkscape (http://www.inkscape.org/) -->

<svg
   width="32"
   height="32"
   viewBox="0 0 8.4666665 8.4666666"
   version="1.1"
   id="svg5"
   xml:space="preserve"
   sodipodi:docname="pdf.svg"
   inkscape:export-filename="pdf.png"
   inkscape:export-xdpi="96"
   inkscape:export-ydpi="96"
   inkscape:version="1.2 (dc2aeda, 2022-05-15)"
   xmlns:inkscape="http://www.inkscape.org/namespaces/inkscape"
   xmlns:sodipodi="http://sodipodi.sourceforge.net/DTD/sodipodi-0.dtd"
   xmlns="http://www.w3.org/2000/svg"
   xmlns:svg="http://www.w3.org/2000/svg"><sodipodi:namedview
     id="namedview197"
     pagecolor="#ffffff"
     bordercolor="#666666"
     borderopacity="1.0"
     inkscape:showpageshadow="2"
     inkscape:pageopacity="0.58431373"
     inkscape:pagecheckerboard="0"
     inkscape:deskcolor="#d1d1d1"
     showgrid="false"
     inkscape:zoom="11.29118"
     inkscape:cx="26.879386"
     inkscape:cy="22.229739"
     inkscape:window-width="1440"
     inkscape:window-height="800"
     inkscape:window-x="0"
     inkscape:window-y="25"
     inkscape:window-maximized="0"
     inkscape:current-layer="g382" /><defs
     id="defs2" /><g
     id="g382"
     transform="matrix(0.09161549,0,0,0.09161549,-0.13738423,-0.44421497)"
     style="fill:#ffffff"><g
       id="g1719"
       transform="matrix(1.1564169,0,0,1.1564169,-75.378837,-18.035596)"><g
         id="g1954"><rect
           style="fill:none;fill-opacity:0.779621;stroke:#ffffff;stroke-width:3.70527;stroke-linecap:round;stroke-linejoin:round;stroke-dasharray:none;paint-order:stroke fill markers"
           id="rect1028"
           width="41.946728"
           height="59.083496"
           x="80.654106"
           y="35.420658" /><path
           style="fill:none;stroke:#ffffff;stroke-width:2.49735px;stroke-linecap:butt;stroke-linejoin:round;stroke-opacity:1"
           d="m 88.247551,35.8425 1.548236,-6.192954 41.138903,6.414131 -7.96237,57.94835"
           id="path1947" /><path
           style="fill:none;stroke:#ffffff;stroke-width:2.49735px;stroke-linecap:butt;stroke-linejoin:round;stroke-opacity:1"
           d="m 96.960693,30.808926 3.259937,-7.276318 38.86585,14.933052 -15.1203,43.69236"
           id="path1949"
           sodipodi:nodetypes="cccc" /></g></g><path
       d="m 28.536407,72.608846 c -1.092487,0 -2.075733,-0.436998 -2.949729,-1.420244 -1.420244,-1.638743 -1.529493,-3.71448 -0.10925,-5.35322 1.092496,-1.420241 3.277478,-2.621985 6.336465,-3.714478 1.092487,-0.327748 2.294232,-0.764745 3.495977,-0.983244 0.764746,-1.420243 1.529493,-2.949734 2.18499,-4.588474 0.655497,-1.529491 1.201737,-2.949733 1.638735,-4.369974 -1.747984,-2.949733 -3.386727,-6.445712 -3.277478,-9.176947 0,-2.403486 1.420244,-3.932977 3.714476,-4.260725 v 0 c 2.075741,-0.218499 3.605234,0.764746 4.260724,2.731234 0.873996,2.621985 0,6.664211 -0.983238,10.160191 0.873996,1.420242 1.857234,2.840484 3.058979,4.260725 0.983245,1.201744 1.857241,2.294236 2.840487,3.38673 3.823726,0 7.428952,0.327748 9.613942,1.529491 1.966484,1.092494 2.73123,2.731235 2.184983,4.697723 -0.655497,2.184987 -2.403482,3.277479 -4.588472,2.94973 -2.84048,-0.327745 -6.117966,-3.05898 -8.630697,-5.680964 -1.747992,0.10925 -3.714483,0.218498 -5.680967,0.546247 -1.420244,0.218499 -2.840487,0.436997 -4.151474,0.764745 -0.436998,0.873995 -0.983246,1.63874 -1.420244,2.294237 -1.857242,2.731232 -3.605226,4.588474 -5.243969,5.57172 -0.764747,0.436998 -1.529493,0.655497 -2.29424,0.655497 z m 4.260732,-7.210462 c -2.29424,0.764747 -4.042233,1.74799 -4.806979,2.621985 -0.327749,0.327746 -0.327749,0.546245 0.109249,1.092492 0.218499,0.218499 0.327749,0.436998 1.201745,0 0.983246,-0.655497 2.29424,-1.966487 3.495985,-3.714477 z M 52.243522,62.88565 c 1.638743,1.420241 3.058979,2.294236 4.151474,2.403485 0.436998,0.109249 0.655497,0.109249 0.983246,-0.655496 0.109249,-0.218498 0.109249,-0.327748 -0.546248,-0.764746 -0.983246,-0.436997 -2.621989,-0.873995 -4.588472,-0.983243 z M 41.537085,55.784441 c -0.327749,0.873994 -0.655498,1.63874 -0.873997,2.184987 -0.327748,0.873995 -0.764746,1.63874 -1.092495,2.403486 0.546248,-0.10925 1.092495,-0.218499 1.638743,-0.218499 1.092495,-0.10925 2.18499,-0.327748 3.277478,-0.327748 -0.546248,-0.655496 -0.983246,-1.201742 -1.201737,-1.529491 -0.436998,-0.655496 -1.092495,-1.529491 -1.747992,-2.512735 z M 40.007591,42.12827 c -0.436998,0.10925 -0.764746,0.10925 -0.764746,0.983245 0,1.092493 0.436998,2.621985 1.310994,4.479223 0.436998,-2.184987 0.546247,-3.932977 0.218499,-4.916221 C 40.553839,42.12827 40.444589,42.12827 40.007591,42.12827 Z"
       id="path1721"
       style="fill:#ffffff;stroke-width:1.09249" /></g></svg>
